<svg xmlns="http://www.w3.org/2000/svg" xmlns:xlink="http://www.w3.org/1999/xlink" width="809.25" height="796" viewBox="0 0 809.25 796">
  <defs>
    <filter id="路径_1979-2" x="259.51" y="250.94" width="302.76" height="302.76" filterUnits="userSpaceOnUse">
      <feOffset input="SourceAlpha"/>
      <feGaussianBlur result="blur"/>
      <feFlood flood-color="#2968ff" flood-opacity="0.2"/>
      <feComposite operator="in" in2="blur"/>
    </filter>
  </defs>
  <g id="组_22497" data-name="组 22497" transform="translate(-19065.75 -6245.97)">
    <g id="组_22475" data-name="组 22475" transform="translate(18867 6047)">
      <path id="椭圆_119" d="M1008,596.97l-.32,15.87-.94,15.72-1.54,15.59-2.16,15.47-2.76,15.36-3.37,15.26-3.93,15.05-4.52,14.85-5.09,14.66-5.67,14.47-6.22,14.25-6.77,13.96-7.31,13.69-7.86,13.43-8.41,13.18-8.9,12.81-9.42,12.46-9.93,12.12-10.46,11.78L891.43,878.4l-11.45,10.99L868.2,899.85l-12.12,9.93-12.46,9.41-12.81,8.91-13.17,8.41-13.43,7.86-13.69,7.31-13.97,6.76-14.24,6.23-14.48,5.67-14.66,5.09-14.85,4.51-15.05,3.94-15.26,3.37-15.36,2.76-15.47,2.15-15.59,1.55-15.72.93-15.87.33-15.87-.33-15.72-.93-15.59-1.55-15.47-2.15-15.36-2.76-15.26-3.37-15.05-3.94-14.85-4.51-14.66-5.09-14.48-5.67-14.24-6.23-13.97-6.76-13.69-7.31-13.43-7.86-13.17-8.41-12.81-8.91-12.46-9.41-12.12-9.93-11.78-10.46L328.57,878.4l-10.99-11.45-10.46-11.78-9.93-12.12-9.42-12.46-8.9-12.81-8.41-13.18-7.86-13.43-7.31-13.69-6.77-13.96-6.22-14.25-5.67-14.47-5.09-14.66-4.51-14.85-3.94-15.05-3.37-15.26-2.76-15.36-2.16-15.47-1.54-15.59-.94-15.72L212,596.97l.32-15.87.94-15.73,1.54-15.59,2.16-15.46,2.76-15.36,3.37-15.27,3.94-15.05,4.51-14.85,5.09-14.65,5.67-14.48,6.22-14.25,6.77-13.96,7.31-13.69,7.86-13.43,8.41-13.17,8.9-12.82,9.42-12.46,9.93-12.11,10.46-11.78,10.99-11.45,11.45-11,11.78-10.45,12.12-9.93,12.46-9.42,12.81-8.9,13.17-8.42,13.43-7.85,13.69-7.31,13.97-6.77,14.24-6.23,14.48-5.67,14.66-5.08,14.85-4.52,15.05-3.94,15.26-3.36,15.36-2.77,15.47-2.15,15.59-1.55,15.72-.93,15.87-.32,15.87.32,15.73.93,15.58,1.55,15.47,2.15,15.36,2.77,15.26,3.36,15.05,3.94,14.85,4.52,14.66,5.08,14.48,5.67,14.24,6.23,13.97,6.77,13.69,7.31,13.43,7.85,13.17,8.42,12.81,8.9,12.46,9.42,12.12,9.93,11.78,10.45,11.45,11,10.99,11.45,10.46,11.78,9.93,12.11,9.42,12.46,8.9,12.82,8.41,13.17,7.86,13.43,7.31,13.69,6.77,13.96,6.22,14.25,5.67,14.48,5.09,14.65,4.52,14.85,3.93,15.05,3.37,15.27,2.76,15.36,2.16,15.46,1.54,15.59.94,15.73Z" fill="rgba(41,104,255,0.02)"/>
    </g>
    <g id="组_22476" data-name="组 22476" transform="translate(18867 6047)">
      <path id="椭圆_124" d="M964,596.97l-.31,14.76-.88,14.52-1.45,14.3-2,14.08-2.56,13.88-3.13,13.85-3.63,13.57-4.13,13.32-4.64,13.07-5.13,12.83-5.65,12.66-6.09,12.35-6.53,12.05-6.98,11.76-7.43,11.48-7.88,11.2-8.26,10.85L878.66,828l-9.04,10.16-9.45,9.83-9.82,9.46-10.15,9.06-10.48,8.67-10.83,8.27-11.19,7.89-11.46,7.44-11.74,6.99-12.04,6.54-12.33,6.1-12.64,5.66-12.82,5.14-13.05,4.64-13.29,4.13-13.56,3.64-13.83,3.13-13.86,2.57-14.06,2-14.28,1.45-14.5.88-14.74.32-14.74-.32-14.5-.88-14.28-1.45-14.06-2-13.86-2.57-13.83-3.13-13.56-3.64-13.29-4.13-13.05-4.64-12.82-5.14-12.64-5.66-12.33-6.1-12.04-6.54-11.74-6.99-11.46-7.44-11.19-7.89-10.83-8.27-10.48-8.67-10.15-9.06-9.82-9.46-9.45-9.83L340.34,828l-8.66-10.5-8.26-10.85-7.88-11.2-7.43-11.48-6.98-11.76-6.53-12.05-6.09-12.35-5.65-12.66-5.13-12.83-4.64-13.07-4.13-13.32-3.63-13.57-3.13-13.85-2.56-13.88-2-14.08-1.45-14.3-.88-14.52L255,596.97l.31-14.77.88-14.52,1.45-14.3,2-14.08,2.56-13.88,3.13-13.85L268.96,498l4.13-13.32,4.64-13.06,5.13-12.84,5.65-12.66,6.09-12.35,6.53-12.05,6.98-11.76,7.43-11.48,7.88-11.2,8.26-10.84,8.66-10.5,9.04-10.17,9.45-9.83,9.82-9.46,10.15-9.06,10.48-8.66,10.83-8.28,11.19-7.88,11.46-7.45,11.74-6.99,12.04-6.54,12.33-6.1,12.64-5.66,12.82-5.14,13.05-4.63,13.29-4.14,13.56-3.64,13.83-3.13,13.86-2.56,14.06-2.01,14.28-1.45,14.5-.88,14.74-.31,14.74.31,14.5.88,14.28,1.45,14.06,2.01,13.86,2.56,13.83,3.13,13.56,3.64,13.29,4.14,13.05,4.63,12.82,5.14,12.64,5.66,12.33,6.1,12.04,6.54,11.74,6.99,11.46,7.45,11.19,7.88,10.83,8.28,10.48,8.66,10.15,9.06,9.82,9.46,9.45,9.83,9.04,10.17,8.66,10.5,8.26,10.84,7.88,11.2,7.43,11.48,6.98,11.76,6.53,12.05,6.09,12.35,5.65,12.66,5.13,12.84,4.64,13.06L950.04,498l3.63,13.57,3.13,13.85,2.56,13.88,2,14.08,1.45,14.3.88,14.52Z" fill="rgba(41,104,255,0.02)"/>
    </g>
    <g id="组_22477" data-name="组 22477" transform="translate(18867 6047)">
      <path id="椭圆_123" d="M928,596.97l-.28,13.22-.79,13.01-1.3,12.81-1.8,12.61-2.29,12.44-2.81,12.4-3.25,12.16-3.71,11.93-4.16,11.7-4.6,11.5-5.07,11.34-5.46,11.06-5.86,10.8-6.26,10.53-6.67,10.28-7.07,10.04-7.41,9.71-7.76,9.41-8.11,9.1-8.48,8.81-8.81,8.47-9.1,8.12-9.4,7.76-9.72,7.41-10.03,7.07-10.29,6.66-10.53,6.27-10.8,5.86-11.06,5.46-11.34,5.07-11.49,4.6-11.71,4.16-11.93,3.7-12.16,3.26-12.4,2.81-12.44,2.29-12.61,1.8-12.81,1.3-13.01.79-13.22.28-13.22-.28-13.01-.79-12.81-1.3-12.61-1.8-12.44-2.29-12.4-2.81-12.16-3.26-11.93-3.7-11.71-4.16-11.49-4.6-11.34-5.07-11.06-5.46-10.8-5.86-10.53-6.27-10.29-6.66-10.03-7.07-9.72-7.41-9.4-7.76-9.1-8.12-8.81-8.47-8.48-8.81-8.11-9.1-7.76-9.41-7.41-9.71-7.07-10.04-6.67-10.28-6.26-10.53-5.86-10.8-5.46-11.06-5.07-11.34-4.6-11.5-4.16-11.7-3.71-11.93-3.25-12.16-2.81-12.4-2.29-12.44-1.8-12.61-1.3-12.81-.79-13.01L292,596.97l.28-13.23.79-13.01,1.3-12.8,1.8-12.62,2.29-12.43,2.81-12.4,3.25-12.17,3.71-11.92,4.16-11.71,4.6-11.49,5.07-11.34,5.46-11.07,5.86-10.79,6.26-10.54,6.67-10.28,7.07-10.03,7.41-9.72,7.76-9.4,8.11-9.11,8.48-8.8,8.81-8.48,9.1-8.11,9.4-7.77,9.72-7.41,10.03-7.06,10.29-6.67,10.53-6.26,10.8-5.86,11.06-5.47,11.34-5.06,11.49-4.61,11.71-4.15,11.93-3.71,12.16-3.26,12.4-2.8,12.44-2.3,12.61-1.8,12.81-1.29,13.01-.79,13.22-.28,13.22.28,13.01.79,12.81,1.29,12.61,1.8,12.44,2.3,12.4,2.8,12.16,3.26,11.93,3.71,11.71,4.15,11.49,4.61,11.34,5.06,11.06,5.47,10.8,5.86,10.53,6.26,10.29,6.67,10.03,7.06,9.72,7.41,9.4,7.77,9.1,8.11,8.81,8.48,8.48,8.8,8.11,9.11,7.76,9.4,7.41,9.72,7.07,10.03,6.67,10.28,6.26,10.54,5.86,10.79,5.46,11.07,5.07,11.34,4.6,11.49,4.16,11.71,3.71,11.92,3.25,12.17,2.81,12.4,2.29,12.43,1.8,12.62,1.3,12.8.79,13.01Z" fill="rgba(41,104,255,0.03)"/>
    </g>
    <g id="组_22478" data-name="组 22478" transform="translate(18867 6047)">
      <path id="椭圆_121" d="M891,597.97l-.32,13.31-.91,13.06-1.49,12.83-2.05,12.6-2.62,12.4-3.21,12.34-3.71,12.05-4.21,11.77-4.72,11.51-5.22,11.26-5.73,11.05-6.17,10.72-6.61,10.38-7.05,10.08-7.49,9.76-7.93,9.44-8.29,9.05-8.66,8.66-9.05,8.29-9.43,7.92-9.77,7.5L766.29,831l-10.39,6.6-10.71,6.17-11.05,5.74-11.26,5.22-11.51,4.72-11.78,4.21-12.05,3.71-12.34,3.2-12.4,2.63-12.6,2.05-12.82,1.49-13.07.9-13.31.33-13.31-.33-13.07-.9-12.82-1.49-12.6-2.05-12.4-2.63-12.34-3.2-12.05-3.71-11.78-4.21-11.51-4.72-11.26-5.22-11.05-5.74L466.1,837.6,455.71,831l-10.07-7.05-9.77-7.5-9.43-7.92-9.05-8.29-8.66-8.66-8.29-9.05-7.93-9.44-7.49-9.76-7.05-10.08-6.61-10.38-6.17-10.72-5.73-11.05-5.22-11.26-4.72-11.51-4.21-11.77-3.71-12.05-3.21-12.34-2.62-12.4-2.05-12.6-1.49-12.83-.91-13.06L331,597.97l.32-13.32.91-13.06,1.49-12.82,2.05-12.61,2.62-12.39,3.21-12.35,3.71-12.05,4.21-11.77,4.72-11.51,5.22-11.26,5.73-11.05,6.17-10.71,6.61-10.39,7.05-10.07,7.49-9.77,7.93-9.44,8.29-9.04,8.66-8.67,9.05-8.29,9.43-7.92,9.77-7.5,10.07-7.04,10.39-6.61,10.71-6.17,11.05-5.73,11.26-5.23,11.51-4.71,11.78-4.21,12.05-3.71,12.34-3.21,12.4-2.62,12.6-2.06,12.82-1.48,13.07-.91,13.31-.32,13.31.32,13.07.91,12.82,1.48,12.6,2.06,12.4,2.62,12.34,3.21,12.05,3.71,11.78,4.21,11.51,4.71,11.26,5.23,11.05,5.73,10.71,6.17,10.39,6.61,10.07,7.04,9.77,7.5,9.43,7.92,9.05,8.29,8.66,8.67,8.29,9.04,7.93,9.44,7.49,9.77,7.05,10.07,6.61,10.39,6.17,10.71,5.73,11.05,5.22,11.26,4.72,11.51,4.21,11.77,3.71,12.05,3.21,12.35,2.62,12.39,2.05,12.61,1.49,12.82.91,13.06Z" fill="rgba(41,104,255,0.04)"/>
    </g>
    <g id="组_22479" data-name="组 22479" transform="translate(18867 6047)">
      <path id="椭圆_122" d="M850,597.97l-.28,11.36-.77,11.15-1.26,10.95-1.75,10.76-2.23,10.58-2.72,10.53-3.15,10.29-3.58,10.05-4.01,9.82-4.44,9.61-4.88,9.44-5.24,9.14-5.62,8.87-5.99,8.59-6.37,8.34-6.73,8.06-7.05,7.72-7.36,7.39-7.69,7.08-8.02,6.76-8.31,6.4-8.56,6.02-8.83,5.64-9.1,5.26-9.39,4.89-9.58,4.46-9.78,4.03-10.01,3.59-10.24,3.17-10.49,2.73-10.54,2.24-10.71,1.76-10.9,1.27-11.1.77-11.32.28-11.32-.28-11.1-.77-10.9-1.27-10.71-1.76-10.54-2.24-10.49-2.73-10.24-3.17-10.01-3.59-9.78-4.03-9.58-4.46-9.39-4.89-9.1-5.26-8.83-5.64-8.56-6.02-8.31-6.4-8.02-6.76-7.69-7.08-7.36-7.39-7.05-7.72-6.73-8.06-6.37-8.34-5.99-8.59-5.62-8.87-5.24-9.14-4.88-9.44-4.44-9.61-4.01-9.82-3.58-10.05-3.15-10.29-2.72-10.53-2.23-10.58-1.75-10.76-1.26-10.95-.77-11.15L374,597.97l.28-11.37.77-11.15,1.26-10.94,1.75-10.76,2.23-10.58,2.72-10.54,3.15-10.28,3.58-10.05,4.01-9.83,4.44-9.61,4.88-9.43,5.24-9.15,5.62-8.86,5.99-8.6,6.37-8.34,6.73-8.05,7.05-7.73,7.36-7.39,7.69-7.08,8.02-6.76,8.31-6.4,8.56-6.01,8.83-5.64,9.1-5.27,9.39-4.89,9.58-4.46,9.78-4.02,10.01-3.6,10.24-3.17,10.49-2.73,10.54-2.24,10.71-1.75,10.9-1.27,11.1-.78,11.32-.27,11.32.27,11.1.78,10.9,1.27,10.71,1.75,10.54,2.24,10.49,2.73,10.24,3.17,10.01,3.6,9.78,4.02,9.58,4.46,9.39,4.89,9.1,5.27,8.83,5.64,8.56,6.01,8.31,6.4,8.02,6.76,7.69,7.08,7.36,7.39,7.05,7.73,6.73,8.05,6.37,8.34,5.99,8.6,5.62,8.86,5.24,9.15,4.88,9.43,4.44,9.61,4.01,9.83,3.58,10.05,3.15,10.28,2.72,10.54,2.23,10.58,1.75,10.76,1.26,10.94.77,11.15Z" fill="rgba(41,104,255,0.05)"/>
    </g>
    <g id="组_22480" data-name="组 22480" transform="translate(18867 6047)">
      <path id="椭圆_120" d="M793,597.97l-.29,10.16-.8,9.92-1.31,9.72-1.81,9.51-2.31,9.34-2.81,9.25-3.25,8.99-3.68,8.73-4.11,8.49-4.55,8.25-4.98,8.03-5.33,7.71-5.7,7.4L746,720.56l-6.45,6.81-6.79,6.47-7.08,6.08-7.37,5.72-7.69,5.35-8.01,4.99-8.23,4.56-8.46,4.12-8.71,3.69-8.96,3.26-9.23,2.82-9.31,2.31-9.49,1.82-9.69,1.31-9.9.81-10.13.29-10.13-.29-9.9-.81-9.69-1.31-9.49-1.82-9.31-2.31-9.23-2.82-8.96-3.26-8.71-3.69-8.46-4.12-8.23-4.56-8.01-4.99-7.69-5.35-7.37-5.72-7.08-6.08-6.79-6.47L475,720.56l-6.07-7.09-5.7-7.4-5.33-7.71-4.98-8.03-4.55-8.25-4.11-8.49-3.68-8.73-3.25-8.99-2.81-9.25-2.31-9.34-1.81-9.51-1.31-9.72-.8-9.92L428,597.97l.29-10.16.8-9.93,1.31-9.71,1.81-9.52,2.31-9.33,2.81-9.26,3.25-8.99,3.68-8.73,4.11-8.48,4.55-8.26,4.98-8.03,5.33-7.71,5.7-7.39,6.07-7.1,6.45-6.8,6.79-6.47,7.08-6.09,7.37-5.72,7.69-5.35,8.01-4.99,8.23-4.56,8.46-4.12,8.71-3.69,8.96-3.25,9.23-2.83,9.31-2.31,9.49-1.81,9.69-1.32,9.9-.8,10.13-.29,10.13.29,9.9.8,9.69,1.32,9.49,1.81,9.31,2.31,9.23,2.83,8.96,3.25,8.71,3.69,8.46,4.12,8.23,4.56,8.01,4.99,7.69,5.35,7.37,5.72,7.08,6.09,6.79,6.47,6.45,6.8,6.07,7.1,5.7,7.39,5.33,7.71,4.98,8.03,4.55,8.26,4.11,8.48,3.68,8.73,3.25,8.99,2.81,9.26,2.31,9.33,1.81,9.52,1.31,9.71.8,9.93Z" fill="rgba(41,104,255,0.06)"/>
    </g>
    <g id="组_22493" data-name="组 22493" transform="translate(18867 6047)">
      <g id="组_22481" data-name="组 22481">
        <path id="路径_1964" d="M830.24,925.51l5.35-.23,5.23-.69,5.13-1.14,5.02-1.58,4.84-2,4.67-2.42,4.44-2.82,4.19-3.2,3.95-3.61,3.62-3.94,3.21-4.19,2.82-4.43,2.43-4.67,2.01-4.83,1.59-5.02,1.15-5.13.7-5.23.24-5.34-.24-5.35-.7-5.23-1.15-5.13-1.59-5.01-2.01-4.84-2.43-4.66-2.82-4.44-3.21-4.18-3.62-3.95-3.95-3.6-4.19-3.21-4.44-2.82-4.67-2.42-4.84-2-5.02-1.58-5.13-1.14-5.23-.68-5.35-.24-5.34.24-5.23.68-5.14,1.14-5.01,1.58-4.84,2-4.67,2.42-4.44,2.82-4.19,3.21-3.95,3.6-3.62,3.95-3.21,4.18-2.83,4.44-2.43,4.66-2,4.84-1.59,5.01-1.15,5.13-.7,5.23-.24,5.35.24,5.34.7,5.23,1.15,5.13,1.59,5.02,2,4.83,2.43,4.67,2.83,4.43,3.21,4.19,3.62,3.94,3.95,3.61,4.19,3.2,4.44,2.82,4.67,2.42,4.84,2,5.01,1.58,5.14,1.14,5.23.69Z" fill="#2968ff"/>
      </g>
      <g id="组_22482" data-name="组 22482">
        <path id="路径_1967" d="M855.2,862.87l.78-.53.59-.7.39-.84.15-.93-.15-.93-.39-.83-.59-.7-.78-.53-22.63-12.69-1.46-.53-1.51-.17-1.51.17-1.46.53-22.62,12.69-.78.53-.59.7-.39.83-.15.93.15.93.39.83.59.71.78.53,6.32,3.55-.01.16v16.86l.03.37.46,1.76,1,1.58,1.64,1.45,1.94,1.14,2.35.98,2.82.8,4.36.73,4.69.26,4.74-.26,4.41-.75,2.83-.82,2.36-1,1.94-1.17,1.62-1.47.96-1.62.41-1.8.01-.18V866.57l-.02-.16Zm-26.4-14.82.8-.15.8.15,21.06,11.82L830.4,871.69l-.8.16-.8-.16-21.06-11.82Zm15.65,35.27v.09l-.37.8-1.45,1.14-2,.95-3.1.93-3.48.59-4.44.25-4.45-.25-3.48-.59-3.1-.93-2-.95-1.45-1.14-.37-.8-.01-.24V868.89l11.88,6.66,1.44.56,1.53.17,1.53-.17,1.44-.55,11.89-6.67Z" fill="#fff"/>
      </g>
      <g id="组_22483" data-name="组 22483">
        <path id="路径_1949" d="M942.66,512.62l5.17-.27,4.93-.75,4.72-1.21,4.54-1.68,4.38-2.11,4.09-2.48,3.8-2.84,3.54-3.23,3.22-3.54,2.85-3.8,2.47-4.09,2.12-4.38,1.68-4.54,1.21-4.72.74-4.93.28-5.17-.28-5.16-.74-4.93-1.21-4.72-1.68-4.55-2.12-4.38-2.47-4.08-2.85-3.8-3.22-3.55-3.54-3.22-3.8-2.84-4.09-2.48-4.38-2.12-4.54-1.67-4.72-1.21-4.93-.75-5.17-.27-5.16.27-4.93.75-4.72,1.21-4.55,1.67-4.38,2.12-4.08,2.48-3.8,2.84-3.55,3.22-3.22,3.55-2.84,3.8-2.48,4.08-2.12,4.38-1.67,4.55-1.21,4.72-.75,4.93-.28,5.16.28,5.17.75,4.93,1.21,4.72,1.67,4.54,2.12,4.38,2.48,4.09,2.84,3.8,3.22,3.54,3.55,3.23,3.8,2.84,4.08,2.48,4.38,2.11,4.55,1.68,4.72,1.21,4.93.75Z" fill="#7b68e7"/>
      </g>
      <g id="组_22484" data-name="组 22484">
        <path id="路径_1952" d="M965.27,471.25h0l-1.97-.76-2.04-.11-1.97.5-1.78,1.13-3.19-1.84v-9.11l-.17-.93-.43-.75-.72-.61-8.17-4.7v-4.03h0l1.3-.61,1.1-.81.91-1.04.68-1.19.42-1.3.16-1.43h0l-.26-1.82-.66-1.57-1.05-1.36-1.37-1.06-1.56-.66-1.83-.25h0l-1.82.25-1.57.66-1.36,1.05-1.06,1.37-.66,1.56-.26,1.83v.01l.16,1.42.42,1.3.68,1.2.91,1.03,1.1.81,1.3.61v4.03l-8.17,4.7h0l-.72.61-.43.75-.17.93v9.11l-3.18,1.84h0l-1.78-1.13-1.98-.51-2.04.11-1.96.76h0l-1.45,1.14-1.03,1.35-.65,1.6-.24,1.7.22,1.69.68,1.71,1.08,1.41,1.34,1.03,1.64.69,1.77.23,1.67-.23,1.65-.67,1.64-1.34,1.11-1.71.55-1.97-.08-2.12,2.92-1.7,8.45,4.87.63.26.69.09.68-.09.64-.26,8.44-4.86,2.93,1.7h0l-.09,2.11.55,1.97,1.12,1.72,1.64,1.34h0l1.69.68,1.67.22,1.7-.23,1.58-.64,1.34-1.02,1.14-1.44.02-.04.69-1.71.21-1.68-.23-1.71-.65-1.59-1.02-1.36Zm-40.43,8.31h0l-1.06.36-1.11-.07-1-.49-.74-.84-.01-.02h0l-.36-1.09.07-1.09.48-.99.86-.76h0l1.06-.36,1.11.07,1,.49.74.84.01.01h0l.37,1.1-.08,1.09-.48.98Zm14.94-35.9h0l.23-1.13.61-.91.91-.61,1.13-.24,1.13.24.91.61.62.91.23,1.13h0l-.23,1.13-.62.91-.9.61-1.14.23-1.13-.23-.91-.61-.61-.91Zm10.21,26.8-7.33,4.22-7.33-4.22v-8.44l7.33-4.22,7.33,4.22Zm14.41,8.04h0l-.73.85-1,.49-1.12.08-1.06-.36h0l-.86-.76-.48-.99-.08-1.09.37-1.09h0l.73-.84,1-.5,1.12-.08,1.06.36h0l.86.76.48.99.08,1.09Z" fill="#fff"/>
      </g>
      <g id="组_22485" data-name="组 22485">
        <path id="路径_1955" d="M547.2,381.02l5.93-.26,5.82-.76,5.7-1.27,5.58-1.76,5.37-2.22,5.19-2.69,4.93-3.13,4.66-3.56,4.39-4.01,4.02-4.38,3.57-4.65,3.13-4.93,2.71-5.18,2.22-5.37,1.77-5.57,1.28-5.71.77-5.81.27-5.94-.27-5.93-.77-5.81-1.28-5.71-1.77-5.57-2.22-5.37-2.71-5.18-3.13-4.93-3.57-4.65-4.02-4.38-4.39-4.01-4.66-3.56-4.93-3.13-5.19-2.69-5.37-2.22-5.58-1.76-5.7-1.27-5.82-.76-5.93-.26-5.94.26-5.81.76-5.71,1.27-5.58,1.76-5.37,2.22-5.19,2.69-4.93,3.13-4.66,3.56-4.39,4.01-4.01,4.38-3.57,4.65-3.14,4.93-2.7,5.18-2.23,5.37-1.77,5.57-1.28,5.71-.77,5.81-.27,5.93.27,5.94.77,5.81,1.28,5.71,1.77,5.57,2.23,5.37,2.7,5.18,3.14,4.93,3.57,4.65,4.01,4.38,4.39,4.01,4.66,3.56,4.93,3.13,5.19,2.69,5.37,2.22,5.58,1.76,5.71,1.27,5.81.76Z" fill="#ffb906"/>
      </g>
      <g id="组_22486" data-name="组 22486">
        <path id="路径_1958" d="M576.18,285.56H522.91l-.76.15-.61.41-.41.61-.16.75v34.86h0l.15.76.41.61.61.41.75.16h8.14l.84-.19.67-.53,10.83-13.43,4.94,4.09h0l.66.35.7.09.69-.18.61-.44,9.58-10.34h0l.51-.57.26-.72-.03-.77-.33-.69-.59-.53-.7-.25-.75.03-.72.34-.52.57-8.31,8.95-5.04-4.16h0l-.66-.36-.76-.07-.72.21-.59.48-.01.02L530.12,320.4h-5.27V289.42h49.4V320.4h-26.7l-.75.16-.61.41-.42.6-.16.76v9.5H534.25l-.75.15-.61.41-.41.6-.16.76v.01h0l.15.75.41.61.61.41.75.16h26.02l.76-.15.6-.41.42-.61.16-.75v-.01h0l-.16-.75-.41-.61-.6-.42-.76-.16H549.49v-7.54h26.68l.75-.16.61-.41.42-.6.16-.76V287.48h0l-.15-.73-.41-.63-.62-.42-.73-.15h-.02Z" fill="#fff"/>
      </g>
      <g id="组_22487" data-name="组 22487">
        <path id="路径_2360" d="M852.46,863.67l-.86.18-.7.47-.47.7-.18.87v17.6l.18.87.47.7.7.47.86.18.85-.17.72-.48.48-.72.17-.85v-17.6l-.17-.85-.48-.72-.72-.48Z" fill="#fff"/>
      </g>
      <g id="组_22488" data-name="组 22488">
        <path id="路径_1973" d="M251.02,677.53l5.43-.29,5.17-.78,4.96-1.27,4.78-1.75,4.6-2.22,4.29-2.6,3.99-2.98,3.73-3.38,3.38-3.71,2.99-3.99,2.61-4.29,2.22-4.6,1.76-4.76,1.28-4.96.79-5.18.3-5.42-.3-5.42-.79-5.18-1.28-4.96-1.76-4.76-2.22-4.6-2.61-4.29-2.99-3.99-3.38-3.71-3.73-3.38-3.99-2.98-4.29-2.6-4.6-2.22-4.78-1.75-4.96-1.27-5.17-.78-5.43-.29-5.42.29-5.18.78-4.96,1.27-4.77,1.75-4.6,2.22-4.29,2.6-3.99,2.98-3.73,3.38-3.38,3.71-2.99,3.99-2.61,4.29-2.23,4.6-1.76,4.76-1.27,4.96-.79,5.18-.3,5.42.3,5.42.79,5.18,1.27,4.96,1.76,4.76,2.23,4.6,2.61,4.29,2.99,3.99,3.38,3.71,3.73,3.38,3.99,2.98,4.29,2.6,4.6,2.22,4.77,1.75,4.96,1.27,5.18.78Z" fill="#2968ff"/>
      </g>
      <g id="组_22489" data-name="组 22489">
        <path id="路径_1976" d="M266.2,650.01h0l-1.5-.14-1.42-.43-1.31-.7-1.16-.96-10.96-10.96h0l-2.9.8-3,.27-3.1-.29-2.85-.78-2.63-1.26-2.39-1.69-2.03-2.03-1.69-2.39L228,626.82l-.78-2.85-.29-3.1.18-2.46.53-2.38.88-2.3.56-.71.84-.37h0l.9.06.78.47,7.15,7.15,1.28.82,1.41.26,1.42-.26,1.28-.82.84-1.27.27-1.42-.27-1.42-.84-1.27-6.86-6.87h0l-.42-.62-.14-.73.14-.73.42-.62.67-.43h0l2.95-.83,3.05-.28,3.11.3,2.84.77,2.64,1.26,2.39,1.69,2.02,2.03,1.69,2.39,1.26,2.63.78,2.85.29,3.1h0l-.18,2.44-.53,2.38L271.58,637h0l.95,1.17.7,1.31.43,1.42.15,1.5-.16,1.5-.43,1.42-.7,1.3-.96,1.17-1.16.94-1.3.7-1.41.43Zm-15.9-17.34h0l.73.14.61.42,11.86,11.86,1.28.81,1.42.27,1.42-.27,1.27-.81.84-1.27.28-1.42-.28-1.43-.84-1.27-12.15-12.15h0l-.52-.95.08-1.08h0l.65-2.28.21-2.37h0l-.22-2.41-.61-2.21-.97-2.05-1.32-1.85-1.57-1.57-1.85-1.32-2.05-.97-2.21-.61-2.41-.23-1.62.1,4.5,4.5h0l1.24,1.64.74,1.82.25,1.93-.25,1.93-.74,1.82-1.24,1.63-1.65,1.21-1.82.71-1.92.24-1.92-.24-1.82-.71-1.64-1.21-5-5h0l-.32,2.84h0l.23,2.41.6,2.21.98,2.05,1.31,1.85,1.58,1.57,1.85,1.32,2.05.98,2.2.6,2.41.23h0l2.84-.32,2.7-.91h0l.8-.18Zm20.2-5.97h0l-.75-.15-.6-.41-.4-.6-.15-.74h0V610.52h-6.67l-.75-.16-.6-.4-.4-.6-.15-.74.15-.75.4-.6.6-.4.75-.15h9.52l.87.08.08.87v17.14h0l-.15.74-.41.6-.59.4-.75.16Zm-21.9,21.9H225.75l-1-.4-.83-.64-.63-.82-.4-1V632.41h0l.15-.74.41-.6.59-.41.75-.15.74.15.6.41.41.6.15.74h0v12.38h21.9l.74.15.6.41.41.59.15.75-.15.74-.41.6-.6.41-.74.15Z" fill="#fff"/>
      </g>
      <g id="组_22491" data-name="组 22491">
        <g id="组_22490" data-name="组 22490">
          <path id="路径_1940" d="M933.2,728.43l2.14,1.21,2.31.84,4.41,1,4.45.57,4.52.15,4.52-.15,4.45-.57,4.42-.99,2.3-.85,2.14-1.21.92-.67.69-.87.44-1.02.16-1.14-.16-1.13-.44-1.02-.69-.87-.92-.68-2.14-1.2-2.3-.85-4.42-1-4.45-.57-4.52-.14-4.52.14-4.46.57-4.41,1-2.3.85-2.14,1.2-.92.67-.7.88-.44,1.02-.15,1.13.15,1.13.44,1.02.7.88Zm1.9-4.81,1.68-.92,1.81-.65,4.09-.92,4.14-.52,4.2-.13,4.2.13,4.14.52,4.1.92,1.81.65,1.69.93.75.73.13.37-.13.37-.75.73-1.68.93-1.81.65-4.1.92-4.14.52-4.2.13-4.2-.13-4.14-.52-4.09-.92-1.82-.65-1.68-.93-.76-.74-.13-.36.13-.36Zm34.17,24.96-.63.13-.51.34-.34.51-.13.63-.13.37-.75.73-1.69.93-1.8.66-4.1.91-4.14.52-4.2.14-4.2-.14-4.14-.52-4.1-.92-1.81-.65-1.69-.93-.75-.73-.14-.37-.12-.63-.35-.51-.51-.34-.63-.13-.63.13-.51.34-.34.51-.13.63.19,1.12.45,1.01.68.87.89.7,2.14,1.21,2.31.85,4.41.99,4.46.57,4.52.15,4.51-.15,4.46-.56,4.41-1,2.3-.85,2.14-1.2.89-.7.68-.87.45-1.02.19-1.11-.12-.62-.35-.52-.52-.35-.62-.12Z" fill="#ffb906"/>
        </g>
        <path id="路径_1943" d="M969.27,740.42l-.63.12-.51.34-.34.51-.13.63-.13.36-.75.74-1.69.92-1.81.66-4,.91-.57.21-.44.39-.26.52-.07.6.16.59.35.46.49.31.6.12.27-.02,4.42-1.02,2.3-.85,2.14-1.2.89-.7.68-.87.45-1.02.19-1.11-.13-.63-.35-.51-.5-.34-.64-.13Zm-36.26,5.3,2.14,1.2,2.31.85,4.59,1.05.26.02.6-.12.49-.31.35-.47.16-.58-.07-.61-.27-.52-.44-.38-.57-.21-4.16-.95-1.81-.65-1.69-.92-.75-.74-.13-.36-.13-.63-.34-.51-.51-.34-.63-.13-.64.13-.5.34-.35.51-.13.63.2,1.11.45,1.01.68.88Zm36.26-13.42-.63.13-.51.34-.34.51-.13.63-.13.37-.75.73-1.69.93-1.81.65-4,.92-.57.21-.44.39-.26.51-.07.61.16.58.35.46.49.32.6.11.27-.02,4.42-1.01,2.3-.85,2.14-1.21.89-.7.68-.87.45-1.01.19-1.12-.13-.63-.35-.5-.5-.34-.64-.13Zm-36.26,5.32,2.14,1.2,2.31.85,4.59,1.05.26.02.6-.12.49-.31.35-.47.16-.58-.07-.61-.27-.52-.44-.38-.57-.21-4.16-.95-1.81-.65-1.69-.92-.75-.74-.13-.36-.13-.63-.34-.51-.51-.34-.63-.13-.64.13-.5.34-.35.51-.13.63.2,1.11.45,1.01.68.88Zm22.73,4.51.63-.13.5-.34.35-.51.13-.63-.13-.63-.35-.51-.5-.34-.63-.13h-1.75l1.99-1.98.47-.72.03-.87-.43-.75-.76-.43-.87.03-.73.47-2.6,2.6-2.61-2.6-.73-.47-.87-.03-.76.43-.43.75.03.87.47.72,1.99,1.99h-1.8l-.8.21-.6.59-.21.8.21.81.6.58.8.22h3.07v1.9h-3.07l-.63.12-.5.35-.35.5-.13.63.13.64.35.5.5.35.63.12h3.07v3.95l.13.63.34.51.51.34.63.13.63-.13.51-.34.34-.51.13-.63v-3.95h3.07l.63-.12.51-.35.34-.5.13-.64-.13-.63-.34-.5-.51-.35-.63-.12h-3.07v-1.9Z" fill="#ffb906"/>
      </g>
      <g id="组_22492" data-name="组 22492">
        <path id="路径_1946" d="M525.06,917.15l-.46-.15-.39-.31-.7-1.1-.11-1.3,3.47-12.87.39-.82.71-.58,20.8-11.6,1.16-.3,1.16.3.85.85.31,1.15-.31,1.16-.85.84-19.95,11.12-1.94,7.22,6.57-2.84.73-.2.74.02.7.23.61.45,7.52,8.06,17.09-35.58-42.73,8.41,4.74,4.9.47.79.13.91-.22.9-.56.74-.81.48-.9.12-.87-.21-.76-.56-7.53-8.06-.62-.96-.02-1.15.24-.6.41-.46.55-.29.64-.09,51.22-10.25.85-.01.72.27.63.57.46,1.21-.16,1.29-20.5,42.89-.75.81-1.03.41-1.08-.14-.89-.63-8.87-9.39-9.38,4.27-.74.13-.74-.04Z" fill="#ffb906"/>
      </g>
      <path id="路径_1934" d="M727.82,326.7l4-5.31.64-.54.81-.19h12.72l.7-.13.59-.4.39-.59.14-.69V297.09l-.14-.7-.39-.59-.59-.39-.7-.14H709.65l-.69.14-.59.39-.4.59-.14.7v21.76l.14.69.4.59.59.4.69.14h12.72l.81.19.64.53Zm-18.17-2.41-1.48-.21-1.27-.53-1.1-.85-.86-1.11-.53-1.26-.21-1.48V297.09l.2-1.43.52-1.27.88-1.15,1.15-.88,1.27-.52,1.43-.19h36.34l1.43.19,1.27.52,1.15.88.88,1.15.53,1.27.19,1.43v21.76l-.19,1.43-.53,1.27-.88,1.15-1.15.87-1.27.53-1.43.19H734.18l-4.91,6.53-.64.53-.81.19-.81-.19-.64-.53-4.91-6.53Z" fill="#ffb906"/>
    </g>
    <g id="组_22495" data-name="组 22495" transform="translate(18867 6047)">
      <g id="组_22494" data-name="组 22494">
        <g transform="matrix(1, 0, 0, 1, 198.75, 198.97)" filter="url(#路径_1979-2)">
          <path id="路径_1979-2-2" data-name="路径_1979-2" d="M609.64,752.67l8.4-.24,8.22-.67,8.03-1.08,7.87-1.5,7.72-1.92,7.66-2.33,7.43-2.7,7.23-3.05,7.02-3.41,6.82-3.77,8.26-5.21,7.85-5.67,7.46-6.15,7.07-6.64,6.64-7.07,6.15-7.45,5.67-7.85,5.21-8.27,3.77-6.82,3.41-7.02,3.05-7.22,2.69-7.44,2.34-7.66,1.91-7.72,1.5-7.87,1.09-8.03.67-8.21.24-8.41-.24-8.4-.67-8.21-1.09-8.04-1.5-7.87-1.91-7.72-2.34-7.66-2.69-7.43-3.05-7.22-3.41-7.02-3.77-6.83-5.21-8.26-5.67-7.85-6.15-7.46-6.64-7.07-7.07-6.64-7.46-6.14-7.85-5.68-8.26-5.21-6.82-3.77-7.02-3.41-7.23-3.05-7.43-2.69-7.66-2.34-7.72-1.91-7.87-1.5-8.03-1.09-8.22-.66-8.4-.25-8.4.25-8.22.66-8.03,1.09-7.87,1.5-7.72,1.91-7.66,2.34-7.43,2.69-7.23,3.05-7.02,3.41-6.82,3.77-8.26,5.21-7.85,5.68-7.46,6.14-7.07,6.64-6.64,7.07-6.15,7.46-5.67,7.85-5.21,8.26-3.77,6.83-3.41,7.02-3.05,7.22-2.69,7.43-2.34,7.66-1.91,7.72-1.5,7.87-1.09,8.04-.67,8.21-.24,8.4.24,8.41.67,8.21,1.09,8.03,1.5,7.87,1.91,7.72,2.34,7.66,2.69,7.44,3.05,7.22,3.41,7.02,3.77,6.82,5.21,8.27,5.67,7.85,6.15,7.45,6.64,7.07,7.07,6.64,7.46,6.15,7.85,5.67,8.26,5.21,6.82,3.77,7.02,3.41,7.23,3.05,7.43,2.7,7.66,2.33,7.72,1.92,7.87,1.5,8.03,1.08,8.22.67Z" transform="translate(-198.75 -198.97)" fill="#fff"/>
        </g>
      </g>
    </g>
    <g id="组_22496" data-name="组 22496" transform="translate(18867 6047)">
      <path id="line-2" d="M593.21,650.31l17.91,4.49,17.34,3.77,16.77,3.08,16.89,2.53L678.1,666l15.12,1.18,11.51.5,10.8.12,10.14-.22,9.49-.54,9.75-.95,8.86-1.28,8.02-1.57,7.27-1.85,7.39-2.39,6.36-2.65,5.44-2.88,4.63-3.07,3.53-2.95,2.88-3.08,2.3-3.23,1.77-3.37,1.26-3.57.69-3.72.16-3.81-.39-3.94-.95-4.11-1.58-4.32-2.47-4.97-3.28-5.22-4.18-5.47-5.2-5.77-5.37-5.23-6.17-5.38-7.03-5.53-7.96-5.7-7.95-5.22-8.67-5.26-9.42-5.29-10.22-5.32-13.68-6.54-14.75-6.41-15.89-6.26-16.07-5.72-16.89-5.4-17.76-5.07-17.91-4.49-17.33-3.77-16.77-3.08-16.89-2.52-15.99-1.83-15.11-1.17-11.52-.5-10.8-.13-10.14.22-9.49.54-9.75.96-8.85,1.27-8.03,1.58-7.27,1.84-7.38,2.4L440,508.51l-5.45,2.87-4.63,3.08-3.52,2.95-2.88,3.08-2.3,3.22-1.77,3.38-1.27,3.56-.69,3.72-.15,3.81.38,3.94.95,4.11,1.58,4.32,2.47,4.98,3.28,5.21,4.18,5.47,5.2,5.78,5.37,5.22,6.17,5.38,7.03,5.53,7.96,5.7,7.96,5.22,8.66,5.26,9.42,5.29,10.22,5.32,13.68,6.55,14.76,6.41,15.89,6.26,16.06,5.72,16.89,5.4Z" fill="none" stroke="#fff" stroke-width="2.5"/>
    </g>
  </g>
</svg>
